<svg id="SvgjsSvg1006" width="989.5" height="677" xmlns="http://www.w3.org/2000/svg" version="1.1" xmlns:xlink="http://www.w3.org/1999/xlink" xmlns:svgjs="http://svgjs.com/svgjs"><defs id="SvgjsDefs1007"><marker id="SvgjsMarker1018" markerWidth="16" markerHeight="12" refX="16" refY="6" viewBox="0 0 16 12" orient="auto" markerUnits="userSpaceOnUse"><path id="SvgjsPath1019" d="M0,2 L14,6 L0,11 L0,2" fill="#323232" stroke="#323232" stroke-width="2"></path></marker><marker id="SvgjsMarker1028" markerWidth="16" markerHeight="12" refX="16" refY="6" viewBox="0 0 16 12" orient="auto" markerUnits="userSpaceOnUse"><path id="SvgjsPath1029" d="M0,2 L14,6 L0,11 L0,2" fill="#323232" stroke="#323232" stroke-width="2"></path></marker><marker id="SvgjsMarker1038" markerWidth="16" markerHeight="12" refX="16" refY="6" viewBox="0 0 16 12" orient="auto" markerUnits="userSpaceOnUse"><path id="SvgjsPath1039" d="M0,2 L14,6 L0,11 L0,2" fill="#323232" stroke="#323232" stroke-width="2"></path></marker><marker id="SvgjsMarker1056" markerWidth="16" markerHeight="12" refX="16" refY="6" viewBox="0 0 16 12" orient="auto" markerUnits="userSpaceOnUse"><path id="SvgjsPath1057" d="M0,2 L14,6 L0,11 L0,2" fill="#323232" stroke="#323232" stroke-width="2"></path></marker><marker id="SvgjsMarker1078" markerWidth="16" markerHeight="12" refX="16" refY="6" viewBox="0 0 16 12" orient="auto" markerUnits="userSpaceOnUse"><path id="SvgjsPath1079" d="M0,2 L14,6 L0,11 L0,2" fill="#323232" stroke="#323232" stroke-width="2"></path></marker><marker id="SvgjsMarker1088" markerWidth="16" markerHeight="12" refX="16" refY="6" viewBox="0 0 16 12" orient="auto" markerUnits="userSpaceOnUse"><path id="SvgjsPath1089" d="M0,2 L14,6 L0,11 L0,2" fill="#323232" stroke="#323232" stroke-width="2"></path></marker><marker id="SvgjsMarker1104" markerWidth="16" markerHeight="12" refX="16" refY="6" viewBox="0 0 16 12" orient="auto" markerUnits="userSpaceOnUse"><path id="SvgjsPath1105" d="M0,2 L14,6 L0,11 L0,2" fill="#323232" stroke="#323232" stroke-width="2"></path></marker><marker id="SvgjsMarker1126" markerWidth="16" markerHeight="12" refX="16" refY="6" viewBox="0 0 16 12" orient="auto" markerUnits="userSpaceOnUse"><path id="SvgjsPath1127" d="M0,2 L14,6 L0,11 L0,2" fill="#323232" stroke="#323232" stroke-width="2"></path></marker><marker id="SvgjsMarker1140" markerWidth="16" markerHeight="12" refX="16" refY="6" viewBox="0 0 16 12" orient="auto" markerUnits="userSpaceOnUse"><path id="SvgjsPath1141" d="M0,2 L14,6 L0,11 L0,2" fill="#323232" stroke="#323232" stroke-width="2"></path></marker><marker id="SvgjsMarker1154" markerWidth="16" markerHeight="12" refX="16" refY="6" viewBox="0 0 16 12" orient="auto" markerUnits="userSpaceOnUse"><path id="SvgjsPath1155" d="M0,2 L14,6 L0,11 L0,2" fill="#323232" stroke="#323232" stroke-width="2"></path></marker><marker id="SvgjsMarker1170" markerWidth="16" markerHeight="12" refX="16" refY="6" viewBox="0 0 16 12" orient="auto" markerUnits="userSpaceOnUse"><path id="SvgjsPath1171" d="M0,2 L14,6 L0,11 L0,2" fill="#323232" stroke="#323232" stroke-width="2"></path></marker><marker id="SvgjsMarker1188" markerWidth="16" markerHeight="12" refX="16" refY="6" viewBox="0 0 16 12" orient="auto" markerUnits="userSpaceOnUse"><path id="SvgjsPath1189" d="M0,2 L14,6 L0,11 L0,2" fill="#323232" stroke="#323232" stroke-width="2"></path></marker><marker id="SvgjsMarker1204" markerWidth="16" markerHeight="12" refX="16" refY="6" viewBox="0 0 16 12" orient="auto" markerUnits="userSpaceOnUse"><path id="SvgjsPath1205" d="M0,2 L14,6 L0,11 L0,2" fill="#323232" stroke="#323232" stroke-width="2"></path></marker><marker id="SvgjsMarker1218" markerWidth="16" markerHeight="12" refX="16" refY="6" viewBox="0 0 16 12" orient="auto" markerUnits="userSpaceOnUse"><path id="SvgjsPath1219" d="M0,2 L14,6 L0,11 L0,2" fill="#323232" stroke="#323232" stroke-width="2"></path></marker><marker id="SvgjsMarker1230" markerWidth="16" markerHeight="12" refX="16" refY="6" viewBox="0 0 16 12" orient="auto" markerUnits="userSpaceOnUse"><path id="SvgjsPath1231" d="M0,2 L14,6 L0,11 L0,2" fill="#323232" stroke="#323232" stroke-width="2"></path></marker><marker id="SvgjsMarker1234" markerWidth="16" markerHeight="12" refX="16" refY="6" viewBox="0 0 16 12" orient="auto" markerUnits="userSpaceOnUse"><path id="SvgjsPath1235" d="M0,2 L14,6 L0,11 L0,2" fill="#323232" stroke="#323232" stroke-width="2"></path></marker><marker id="SvgjsMarker1278" markerWidth="16" markerHeight="12" refX="16" refY="6" viewBox="0 0 16 12" orient="auto" markerUnits="userSpaceOnUse"><path id="SvgjsPath1279" d="M0,2 L14,6 L0,11 L0,2" fill="#323232" stroke="#323232" stroke-width="2"></path></marker><marker id="SvgjsMarker1282" markerWidth="16" markerHeight="12" refX="16" refY="6" viewBox="0 0 16 12" orient="auto" markerUnits="userSpaceOnUse"><path id="SvgjsPath1283" d="M0,2 L14,6 L0,11 L0,2" fill="#323232" stroke="#323232" stroke-width="2"></path></marker><marker id="SvgjsMarker1286" markerWidth="16" markerHeight="12" refX="16" refY="6" viewBox="0 0 16 12" orient="auto" markerUnits="userSpaceOnUse"><path id="SvgjsPath1287" d="M0,2 L14,6 L0,11 L0,2" fill="#323232" stroke="#323232" stroke-width="2"></path></marker><marker id="SvgjsMarker1290" markerWidth="16" markerHeight="12" refX="16" refY="6" viewBox="0 0 16 12" orient="auto" markerUnits="userSpaceOnUse"><path id="SvgjsPath1291" d="M0,2 L14,6 L0,11 L0,2" fill="#323232" stroke="#323232" stroke-width="2"></path></marker></defs><g id="SvgjsG1008" transform="translate(25,55)"><path id="SvgjsPath1009" d="M 0 0L 100 0L 100 70L 0 70Z" stroke="#323232" stroke-width="2" fill-opacity="1" fill="#ffffff"></path><g id="SvgjsG1010"><text id="SvgjsText1011" font-family="微软雅黑" text-anchor="middle" font-size="13px" width="78" fill="#323232" font-weight="400" align="middle" anchor="middle" family="微软雅黑" size="13px" weight="400" font-style="" y="17.05" transform="rotate(0)"><tspan id="SvgjsTspan1012" dy="16" x="50"><tspan id="SvgjsTspan1013" style="text-decoration:;">hashchange,</tspan></tspan><tspan id="SvgjsTspan1014" dy="16" x="50"><tspan id="SvgjsTspan1015" style="text-decoration:;">popstate</tspan></tspan></text></g></g><g id="SvgjsG1016"><path id="SvgjsPath1017" d="M125 90L149.5 90L149.5 90L174 90" stroke="#323232" stroke-width="2" fill="none" marker-end="url(#SvgjsMarker1018)"></path></g><g id="SvgjsG1020" transform="translate(174,55)"><path id="SvgjsPath1021" d="M 0 0L 100 0L 100 70L 0 70Z" stroke="#323232" stroke-width="2" fill-opacity="1" fill="#ffffff"></path><g id="SvgjsG1022"><text id="SvgjsText1023" font-family="微软雅黑" text-anchor="middle" font-size="13px" width="74" fill="#323232" font-weight="400" align="middle" anchor="middle" family="微软雅黑" size="13px" weight="400" font-style="" y="25.05" transform="rotate(0)"><tspan id="SvgjsTspan1024" dy="16" x="50"><tspan id="SvgjsTspan1025" style="text-decoration:;">urlReroute()</tspan></tspan></text></g></g><g id="SvgjsG1026"><path id="SvgjsPath1027" d="M274 90L288.75 90L288.75 90L303.5 90" stroke="#323232" stroke-width="2" fill="none" marker-end="url(#SvgjsMarker1028)"></path></g><g id="SvgjsG1030" transform="translate(303.5,55)"><path id="SvgjsPath1031" d="M 0 0L 100 0L 100 70L 0 70Z" stroke="#323232" stroke-width="2" fill-opacity="1" fill="#ffffff"></path><g id="SvgjsG1032"><text id="SvgjsText1033" font-family="微软雅黑" text-anchor="middle" font-size="13px" width="54" fill="#323232" font-weight="400" align="middle" anchor="middle" family="微软雅黑" size="13px" weight="400" font-style="" y="25.05" transform="rotate(0)"><tspan id="SvgjsTspan1034" dy="16" x="50"><tspan id="SvgjsTspan1035" style="text-decoration:;">reroute()</tspan></tspan></text></g></g><g id="SvgjsG1036"><path id="SvgjsPath1037" d="M403.5 90L435.75 90L435.75 90L468 90" stroke="#323232" stroke-width="2" fill="none" marker-end="url(#SvgjsMarker1038)"></path></g><g id="SvgjsG1040" transform="translate(468,42)"><path id="SvgjsPath1041" d="M 0 48L 86 0L 172 48L 86 96L 0 48Z" stroke="#323232" stroke-width="2" fill-opacity="1" fill="#ffffff"></path><g id="SvgjsG1042"><text id="SvgjsText1043" font-family="微软雅黑" text-anchor="middle" font-size="13px" width="134" fill="#323232" font-weight="400" align="middle" anchor="middle" family="微软雅黑" size="13px" weight="400" font-style="" y="30.05" transform="rotate(0)"><tspan id="SvgjsTspan1044" dy="16" x="86"><tspan id="SvgjsTspan1045" style="text-decoration:;">appChangeUnderway</tspan></tspan><tspan id="SvgjsTspan1046" dy="16" x="86"><tspan id="SvgjsTspan1047" style="text-decoration:;">正在change中？</tspan></tspan></text></g></g><g id="SvgjsG1048" transform="translate(494,138)"><path id="SvgjsPath1049" d="M 0 0L 160 0L 160 40L 0 40Z" stroke="none" fill="none"></path><g id="SvgjsG1050"><text id="SvgjsText1051" font-family="微软雅黑" text-anchor="middle" font-size="13px" width="29" fill="#323232" font-weight="400" align="middle" anchor="middle" family="微软雅黑" size="13px" weight="400" font-style="" y="10.05" transform="rotate(0)"><tspan id="SvgjsTspan1052" dy="16" x="80"><tspan id="SvgjsTspan1053" style="text-decoration:;">false</tspan></tspan></text></g></g><g id="SvgjsG1054"><path id="SvgjsPath1055" d="M640 90L655 90L655 90L670 90" stroke="#323232" stroke-width="2" fill="none" marker-end="url(#SvgjsMarker1056)"></path></g><g id="SvgjsG1058" transform="translate(670,55)"><path id="SvgjsPath1059" d="M 0 0L 100 0L 100 70L 0 70Z" stroke="#323232" stroke-width="2" fill-opacity="1" fill="#ffffff"></path><g id="SvgjsG1060"><text id="SvgjsText1061" font-family="微软雅黑" text-anchor="middle" font-size="13px" width="77" fill="#323232" font-weight="400" align="middle" anchor="middle" family="微软雅黑" size="13px" weight="400" font-style="" y="1.05" transform="rotate(0)"><tspan id="SvgjsTspan1062" dy="16" x="50"><tspan id="SvgjsTspan1063" style="text-decoration:;">放入</tspan></tspan><tspan id="SvgjsTspan1064" dy="16" x="50"><tspan id="SvgjsTspan1065" style="text-decoration:;">peopleWaiti</tspan></tspan><tspan id="SvgjsTspan1066" dy="16" x="50"><tspan id="SvgjsTspan1067" style="text-decoration:;">ngOnAppCh</tspan></tspan><tspan id="SvgjsTspan1068" dy="16" x="50"><tspan id="SvgjsTspan1069" style="text-decoration:;">ange列队中</tspan></tspan></text></g></g><g id="SvgjsG1070" transform="translate(571,58)"><path id="SvgjsPath1071" d="M 0 0L 160 0L 160 40L 0 40Z" stroke="none" fill="none"></path><g id="SvgjsG1072"><text id="SvgjsText1073" font-family="微软雅黑" text-anchor="middle" font-size="13px" width="25" fill="#323232" font-weight="400" align="middle" anchor="middle" family="微软雅黑" size="13px" weight="400" font-style="" y="10.05" transform="rotate(0)"><tspan id="SvgjsTspan1074" dy="16" x="80"><tspan id="SvgjsTspan1075" style="text-decoration:;">true</tspan></tspan></text></g></g><g id="SvgjsG1076"><path id="SvgjsPath1077" d="M554 138L554 168L554 168L554 198" stroke="#323232" stroke-width="2" fill="none" marker-end="url(#SvgjsMarker1078)"></path></g><g id="SvgjsG1080" transform="translate(509,198)"><path id="SvgjsPath1081" d="M 0 35L 45 0L 90 35L 45 70L 0 35Z" stroke="#323232" stroke-width="2" fill-opacity="1" fill="#ffffff"></path><g id="SvgjsG1082"><text id="SvgjsText1083" font-family="微软雅黑" text-anchor="middle" font-size="13px" width="63" fill="#323232" font-weight="400" align="middle" anchor="middle" family="微软雅黑" size="13px" weight="400" font-style="" y="25.05" transform="rotate(0)"><tspan id="SvgjsTspan1084" dy="16" x="45"><tspan id="SvgjsTspan1085" style="text-decoration:;">isStarted()</tspan></tspan></text></g></g><g id="SvgjsG1086"><path id="SvgjsPath1087" d="M599 233L617.5 233L617.5 233L636 233" stroke="#323232" stroke-width="2" fill="none" marker-end="url(#SvgjsMarker1088)"></path></g><g id="SvgjsG1090" transform="translate(636,198)"><path id="SvgjsPath1091" d="M 0 0L 100 0L 100 70L 0 70Z" stroke="#323232" stroke-width="2" fill-opacity="1" fill="#ffffff"></path><g id="SvgjsG1092"><text id="SvgjsText1093" font-family="微软雅黑" text-anchor="middle" font-size="13px" width="68" fill="#323232" font-weight="400" align="middle" anchor="middle" family="微软雅黑" size="13px" weight="400" font-style="" y="25.05" transform="rotate(0)"><tspan id="SvgjsTspan1094" dy="16" x="50"><tspan id="SvgjsTspan1095" style="text-decoration:;">loadApps()</tspan></tspan></text></g></g><g id="SvgjsG1096" transform="translate(531,198)"><path id="SvgjsPath1097" d="M 0 0L 160 0L 160 40L 0 40Z" stroke="none" fill="none"></path><g id="SvgjsG1098"><text id="SvgjsText1099" font-family="微软雅黑" text-anchor="middle" font-size="13px" width="29" fill="#323232" font-weight="400" align="middle" anchor="middle" family="微软雅黑" size="13px" weight="400" font-style="" y="10.05" transform="rotate(0)"><tspan id="SvgjsTspan1100" dy="16" x="80"><tspan id="SvgjsTspan1101" style="text-decoration:;">false</tspan></tspan></text></g></g><g id="SvgjsG1102"><path id="SvgjsPath1103" d="M554 268L554 295L554 295L554 322" stroke="#323232" stroke-width="2" fill="none" marker-end="url(#SvgjsMarker1104)"></path></g><g id="SvgjsG1106" transform="translate(504,322)"><path id="SvgjsPath1107" d="M 0 0L 100 0L 100 70L 0 70Z" stroke="#323232" stroke-width="2" fill-opacity="1" fill="#ffffff"></path><g id="SvgjsG1108"><text id="SvgjsText1109" font-family="微软雅黑" text-anchor="middle" font-size="13px" width="76" fill="#323232" font-weight="400" align="middle" anchor="middle" family="微软雅黑" size="13px" weight="400" font-style="" y="1.05" transform="rotate(0)"><tspan id="SvgjsTspan1110" dy="16" x="50"><tspan id="SvgjsTspan1111" style="text-decoration:;">performApp</tspan></tspan><tspan id="SvgjsTspan1112" dy="16" x="50"><tspan id="SvgjsTspan1113" style="text-decoration:;">Changes()卸</tspan></tspan><tspan id="SvgjsTspan1114" dy="16" x="50"><tspan id="SvgjsTspan1115" style="text-decoration:;">载一个app激</tspan></tspan><tspan id="SvgjsTspan1116" dy="16" x="50"><tspan id="SvgjsTspan1117" style="text-decoration:;">活另一个app</tspan></tspan></text></g></g><g id="SvgjsG1118" transform="translate(494,268)"><path id="SvgjsPath1119" d="M 0 0L 160 0L 160 40L 0 40Z" stroke="none" fill="none"></path><g id="SvgjsG1120"><text id="SvgjsText1121" font-family="微软雅黑" text-anchor="middle" font-size="13px" width="25" fill="#323232" font-weight="400" align="middle" anchor="middle" family="微软雅黑" size="13px" weight="400" font-style="" y="10.05" transform="rotate(0)"><tspan id="SvgjsTspan1122" dy="16" x="80"><tspan id="SvgjsTspan1123" style="text-decoration:;">true</tspan></tspan></text></g></g><g id="SvgjsG1124"><path id="SvgjsPath1125" d="M736 233L763 233L763 233L790 233" stroke="#323232" stroke-width="2" fill="none" marker-end="url(#SvgjsMarker1126)"></path></g><g id="SvgjsG1128" transform="translate(790,198)"><path id="SvgjsPath1129" d="M 0 0L 100 0L 100 70L 0 70Z" stroke="#323232" stroke-width="2" fill-opacity="1" fill="#ffffff"></path><g id="SvgjsG1130"><text id="SvgjsText1131" font-family="微软雅黑" text-anchor="middle" font-size="13px" width="77" fill="#323232" font-weight="400" align="middle" anchor="middle" family="微软雅黑" size="13px" weight="400" font-style="" y="9.05" transform="rotate(0)"><tspan id="SvgjsTspan1132" dy="16" x="50"><tspan id="SvgjsTspan1133" style="text-decoration:;">getAppsToL</tspan></tspan><tspan id="SvgjsTspan1134" dy="16" x="50"><tspan id="SvgjsTspan1135" style="text-decoration:;">oad()获取需</tspan></tspan><tspan id="SvgjsTspan1136" dy="16" x="50"><tspan id="SvgjsTspan1137" style="text-decoration:;">要load的app</tspan></tspan></text></g></g><g id="SvgjsG1138"><path id="SvgjsPath1139" d="M840 268L840 295.5L840 295.5L840 323" stroke="#323232" stroke-width="2" fill="none" marker-end="url(#SvgjsMarker1140)"></path></g><g id="SvgjsG1142" transform="translate(746.5,323)"><path id="SvgjsPath1143" d="M 0 0L 187 0L 187 68L 0 68Z" stroke="#323232" stroke-width="2" fill-opacity="1" fill="#ffffff"></path><g id="SvgjsG1144"><text id="SvgjsText1145" font-family="微软雅黑" text-anchor="middle" font-size="13px" width="166" fill="#323232" font-weight="400" align="middle" anchor="middle" family="微软雅黑" size="13px" weight="400" font-style="" y="8.05" transform="rotate(0)"><tspan id="SvgjsTspan1146" dy="16" x="93.5"><tspan id="SvgjsTspan1147" style="text-decoration:;">map(toLoadPromise)转换</tspan></tspan><tspan id="SvgjsTspan1148" dy="16" x="93.5"><tspan id="SvgjsTspan1149" style="text-decoration:;">成一个promise数组（调用</tspan></tspan><tspan id="SvgjsTspan1150" dy="16" x="93.5"><tspan id="SvgjsTspan1151" style="text-decoration:;">注册时的loadingFunction）</tspan></tspan></text></g></g><g id="SvgjsG1152"><path id="SvgjsPath1153" d="M840 391L840 412.5L840 412.5L840 434" stroke="#323232" stroke-width="2" fill="none" marker-end="url(#SvgjsMarker1154)"></path></g><g id="SvgjsG1156" transform="translate(758.5,434)"><path id="SvgjsPath1157" d="M 0 0L 163 0L 163 67L 0 67Z" stroke="#323232" stroke-width="2" fill-opacity="1" fill="#ffffff"></path><g id="SvgjsG1158"><text id="SvgjsText1159" font-family="微软雅黑" text-anchor="middle" font-size="13px" width="141" fill="#323232" font-weight="400" align="middle" anchor="middle" family="微软雅黑" size="13px" weight="400" font-style="" y="-0.44999999999999996" transform="rotate(0)"><tspan id="SvgjsTspan1160" dy="16" x="81.5"><tspan id="SvgjsTspan1161" style="text-decoration:;">finishUpAndReturn完</tspan></tspan><tspan id="SvgjsTspan1162" dy="16" x="81.5"><tspan id="SvgjsTspan1163" style="text-decoration:;">成子app的加载、注册后</tspan></tspan><tspan id="SvgjsTspan1164" dy="16" x="81.5"><tspan id="SvgjsTspan1165" style="text-decoration:;">运行，再去reroute下一</tspan></tspan><tspan id="SvgjsTspan1166" dy="16" x="81.5"><tspan id="SvgjsTspan1167" style="text-decoration:;">个</tspan></tspan></text></g></g><g id="SvgjsG1168"><path id="SvgjsPath1169" d="M554 392L554 417L554 417L554 442" stroke="#323232" stroke-width="2" fill="none" marker-end="url(#SvgjsMarker1170)"></path></g><g id="SvgjsG1172" transform="translate(440.5,442)"><path id="SvgjsPath1173" d="M 0 0L 227 0L 227 89L 0 89Z" stroke="#323232" stroke-width="2" fill-opacity="1" fill="#ffffff"></path><g id="SvgjsG1174"><text id="SvgjsText1175" font-family="微软雅黑" text-anchor="middle" font-size="13px" width="196" fill="#323232" font-weight="400" align="middle" anchor="middle" family="微软雅黑" size="13px" weight="400" font-style="" y="2.55" transform="rotate(0)"><tspan id="SvgjsTspan1176" dy="16" x="113.5"><tspan id="SvgjsTspan1177" style="text-decoration:;">toUnmountPromise、</tspan></tspan><tspan id="SvgjsTspan1178" dy="16" x="113.5"><tspan id="SvgjsTspan1179" style="text-decoration:;">toBootstrapPromise、</tspan></tspan><tspan id="SvgjsTspan1180" dy="16" x="113.5"><tspan id="SvgjsTspan1181" style="text-decoration:;">toMountPromise分别调用子应用</tspan></tspan><tspan id="SvgjsTspan1182" dy="16" x="113.5"><tspan id="SvgjsTspan1183" style="text-decoration:;">定义的unmount、bootstrap、</tspan></tspan><tspan id="SvgjsTspan1184" dy="16" x="113.5"><tspan id="SvgjsTspan1185" style="text-decoration:;">mount</tspan></tspan></text></g></g><g id="SvgjsG1186"><path id="SvgjsPath1187" d="M554 531L554 545.5L554 545.5L554 560" stroke="#323232" stroke-width="2" fill="none" marker-end="url(#SvgjsMarker1188)"></path></g><g id="SvgjsG1190" transform="translate(504,560)"><path id="SvgjsPath1191" d="M 0 0L 100 0L 100 70L 0 70Z" stroke="#323232" stroke-width="2" fill-opacity="1" fill="#ffffff"></path><g id="SvgjsG1192"><text id="SvgjsText1193" font-family="微软雅黑" text-anchor="middle" font-size="13px" width="78" fill="#323232" font-weight="400" align="middle" anchor="middle" family="微软雅黑" size="13px" weight="400" font-style="" y="1.05" transform="rotate(0)"><tspan id="SvgjsTspan1194" dy="16" x="50"><tspan id="SvgjsTspan1195" style="text-decoration:;">mount、</tspan></tspan><tspan id="SvgjsTspan1196" dy="16" x="50"><tspan id="SvgjsTspan1197" style="text-decoration:;">unmount中</tspan></tspan><tspan id="SvgjsTspan1198" dy="16" x="50"><tspan id="SvgjsTspan1199" style="text-decoration:;">子应用自身设</tspan></tspan><tspan id="SvgjsTspan1200" dy="16" x="50"><tspan id="SvgjsTspan1201" style="text-decoration:;">置挂载和卸载</tspan></tspan></text></g></g><g id="SvgjsG1202"><path id="SvgjsPath1203" d="M770 90L790.5 90L790.5 90L811 90" stroke="#323232" stroke-width="2" fill="none" marker-end="url(#SvgjsMarker1204)"></path></g><g id="SvgjsG1206" transform="translate(811,55)"><path id="SvgjsPath1207" d="M 0 0L 124 0L 124 70L 0 70Z" stroke="#323232" stroke-width="2" fill-opacity="1" fill="#ffffff"></path><g id="SvgjsG1208"><text id="SvgjsText1209" font-family="微软雅黑" text-anchor="middle" font-size="13px" width="104" fill="#323232" font-weight="400" align="middle" anchor="middle" family="微软雅黑" size="13px" weight="400" font-style="" y="9.05" transform="rotate(0)"><tspan id="SvgjsTspan1210" dy="16" x="62"><tspan id="SvgjsTspan1211" style="text-decoration:;">在一个app load</tspan></tspan><tspan id="SvgjsTspan1212" dy="16" x="62"><tspan id="SvgjsTspan1213" style="text-decoration:;">完成时按该列队再</tspan></tspan><tspan id="SvgjsTspan1214" dy="16" x="62"><tspan id="SvgjsTspan1215" style="text-decoration:;">去reroute下一个</tspan></tspan></text></g></g><g id="SvgjsG1216"><path id="SvgjsPath1217" d="M873 55L873 25L353.5 25L353.5 55" stroke="#323232" stroke-width="2" fill="none" marker-end="url(#SvgjsMarker1218)"></path></g><g id="SvgjsG1220" transform="translate(25,190)"><path id="SvgjsPath1221" d="M 0 0L 100 0L 100 70L 0 70Z" stroke="#323232" stroke-width="2" fill-opacity="1" fill="#ffffff"></path><g id="SvgjsG1222"><text id="SvgjsText1223" font-family="微软雅黑" text-anchor="middle" font-size="13px" width="68" fill="#323232" font-weight="400" align="middle" anchor="middle" family="微软雅黑" size="13px" weight="400" font-style="" y="17.05" transform="rotate(0)"><tspan id="SvgjsTspan1224" dy="16" x="50"><tspan id="SvgjsTspan1225" style="text-decoration:;">浏览器url变</tspan></tspan><tspan id="SvgjsTspan1226" dy="16" x="50"><tspan id="SvgjsTspan1227" style="text-decoration:;">化</tspan></tspan></text></g></g><g id="SvgjsG1228"><path id="SvgjsPath1229" d="M75 190L75 157.5L75 157.5L75 125" stroke="#323232" stroke-width="2" fill="none" marker-end="url(#SvgjsMarker1230)"></path></g><g id="SvgjsG1232"><path id="SvgjsPath1233" d="M921.5 467.5L965 467.5L965 90L935 90" stroke="#323232" stroke-width="2" fill="none" marker-end="url(#SvgjsMarker1234)"></path></g><g id="SvgjsG1236" transform="translate(303.5,582)"><path id="SvgjsPath1237" d="M 0 0L 100 0L 100 70L 0 70Z" stroke="#323232" stroke-width="2" fill-opacity="1" fill="#ffffff"></path><g id="SvgjsG1238"><text id="SvgjsText1239" font-family="微软雅黑" text-anchor="middle" font-size="13px" width="77" fill="#323232" font-weight="400" align="middle" anchor="middle" family="微软雅黑" size="13px" weight="400" font-style="" y="17.05" transform="rotate(0)"><tspan id="SvgjsTspan1240" dy="16" x="50"><tspan id="SvgjsTspan1241" style="text-decoration:;">registerAppl</tspan></tspan><tspan id="SvgjsTspan1242" dy="16" x="50"><tspan id="SvgjsTspan1243" style="text-decoration:;">ication</tspan></tspan></text></g></g><g id="SvgjsG1244" transform="translate(280,457)"><path id="SvgjsPath1245" d="M 0 0L 147 0L 147 70L 0 70Z" stroke="#323232" stroke-width="2" fill-opacity="1" fill="#ffffff"></path><g id="SvgjsG1246"><text id="SvgjsText1247" font-family="微软雅黑" text-anchor="middle" font-size="13px" width="122" fill="#323232" font-weight="400" align="middle" anchor="middle" family="微软雅黑" size="13px" weight="400" font-style="" y="1.05" transform="rotate(0)"><tspan id="SvgjsTspan1248" dy="16" x="73.5"><tspan id="SvgjsTspan1249" style="text-decoration:;">将子app的信息存储</tspan></tspan><tspan id="SvgjsTspan1250" dy="16" x="73.5"><tspan id="SvgjsTspan1251" style="text-decoration:;">在apps中比如</tspan></tspan><tspan id="SvgjsTspan1252" dy="16" x="73.5"><tspan id="SvgjsTspan1253" style="text-decoration:;">name,loadImpl, acti</tspan></tspan><tspan id="SvgjsTspan1254" dy="16" x="73.5"><tspan id="SvgjsTspan1255" style="text-decoration:;">veWhen,status</tspan></tspan></text></g></g><g id="SvgjsG1256" transform="translate(300,338)"><path id="SvgjsPath1257" d="M 0 0L 107 0L 107 70L 0 70Z" stroke="#323232" stroke-width="2" fill-opacity="1" fill="#ffffff"></path><g id="SvgjsG1258"><text id="SvgjsText1259" font-family="微软雅黑" text-anchor="middle" font-size="13px" width="85" fill="#323232" font-weight="400" align="middle" anchor="middle" family="微软雅黑" size="13px" weight="400" font-style="" y="1.05" transform="rotate(0)"><tspan id="SvgjsTspan1260" dy="16" x="53.5"><tspan id="SvgjsTspan1261" style="text-decoration:;">ensureJQuery</tspan></tspan><tspan id="SvgjsTspan1262" dy="16" x="53.5"><tspan id="SvgjsTspan1263" style="text-decoration:;">Support()做jq</tspan></tspan><tspan id="SvgjsTspan1264" dy="16" x="53.5"><tspan id="SvgjsTspan1265" style="text-decoration:;">兼容处理-主要</tspan></tspan><tspan id="SvgjsTspan1266" dy="16" x="53.5"><tspan id="SvgjsTspan1267" style="text-decoration:;">是事件的处理</tspan></tspan></text></g></g><g id="SvgjsG1268" transform="translate(303.5,214)"><path id="SvgjsPath1269" d="M 0 0L 100 0L 100 70L 0 70Z" stroke="#323232" stroke-width="2" fill-opacity="1" fill="#ffffff"></path><g id="SvgjsG1270"><text id="SvgjsText1271" font-family="微软雅黑" text-anchor="middle" font-size="13px" width="54" fill="#323232" font-weight="400" align="middle" anchor="middle" family="微软雅黑" size="13px" weight="400" font-style="" y="17.05" transform="rotate(0)"><tspan id="SvgjsTspan1272" dy="16" x="50"><tspan id="SvgjsTspan1273" style="text-decoration:;">手动调用</tspan></tspan><tspan id="SvgjsTspan1274" dy="16" x="50"><tspan id="SvgjsTspan1275" style="text-decoration:;">reroute()</tspan></tspan></text></g></g><g id="SvgjsG1276"><path id="SvgjsPath1277" d="M353.5 582L353.5 554.5L353.5 554.5L353.5 527" stroke="#323232" stroke-width="2" fill="none" marker-end="url(#SvgjsMarker1278)"></path></g><g id="SvgjsG1280"><path id="SvgjsPath1281" d="M353.5 457L353.5 432.5L353.5 432.5L353.5 408" stroke="#323232" stroke-width="2" fill="none" marker-end="url(#SvgjsMarker1282)"></path></g><g id="SvgjsG1284"><path id="SvgjsPath1285" d="M353.5 338L353.5 311L353.5 311L353.5 284" stroke="#323232" stroke-width="2" fill="none" marker-end="url(#SvgjsMarker1286)"></path></g><g id="SvgjsG1288"><path id="SvgjsPath1289" d="M353.5 214L353.5 169.5L353.5 169.5L353.5 125" stroke="#323232" stroke-width="2" fill="none" marker-end="url(#SvgjsMarker1290)"></path></g></svg>